<svg width="2225" height="774" viewBox="0 0 2225 774" fill="none" xmlns="http://www.w3.org/2000/svg">
<path fill-rule="evenodd" clip-rule="evenodd" d="M27.2921 107.217C30.3954 48.0027 80.9139 2.51572 140.128 5.61901L1315.13 67.1981L1314.69 75.5073L1314.57 75.5008C1297.66 74.6142 1283.22 87.6105 1282.33 104.529C1281.45 121.447 1294.44 135.881 1311.36 136.768L1311.48 136.774L1311.08 144.429L1310.96 144.423C1294.05 143.537 1279.61 156.533 1278.73 173.451C1277.84 190.37 1290.84 204.803 1307.75 205.69L1307.87 205.696L1307.47 213.354L1307.35 213.347C1290.43 212.461 1276 225.457 1275.11 242.375C1274.23 259.294 1287.22 273.728 1304.14 274.614L1304.26 274.62L1303.86 282.28L1303.74 282.273C1286.82 281.387 1272.39 294.383 1271.5 311.301C1270.62 328.22 1283.61 342.654 1300.53 343.54L1300.64 343.546L1300.24 351.208L1300.13 351.201C1283.21 350.315 1268.77 363.311 1267.89 380.229C1267 397.148 1280 411.582 1296.92 412.468L1297.03 412.474L1296.63 420.132L1296.51 420.125C1279.59 419.239 1265.16 432.235 1264.27 449.153C1263.39 466.072 1276.38 480.506 1293.3 481.392L1293.42 481.398L1293.02 489.052L1292.9 489.046C1275.99 488.159 1261.55 501.156 1260.66 518.074C1259.78 534.992 1272.77 549.426 1289.69 550.313L1289.81 550.319L1289.41 557.98L1289.29 557.974C1272.38 557.087 1257.94 570.084 1257.06 587.002C1256.17 603.92 1269.17 618.354 1286.08 619.241L1286.2 619.247L1285.79 626.91C1285.76 626.908 1285.72 626.906 1285.68 626.904C1268.76 626.017 1254.33 639.013 1253.44 655.932C1252.55 672.85 1265.55 687.284 1282.47 688.17C1282.51 688.173 1282.54 688.174 1282.58 688.176L1282.22 695.184L107.217 633.605C48.0025 630.502 2.51551 579.983 5.6188 520.769L11.0408 417.312C59.1601 412.464 97.8734 373.126 100.483 323.334C103.092 273.543 68.7031 230.374 21.354 220.523L27.2921 107.217Z" fill="#00FF82"/>
<path fill-rule="evenodd" clip-rule="evenodd" d="M2193.55 130.089C2190.45 70.8743 2139.93 25.3873 2080.71 28.4906L1314.89 68.6257L1315.32 76.9254L1315.44 76.9189C1332.36 76.0322 1346.8 89.0285 1347.68 105.947C1348.57 122.865 1335.57 137.299 1318.66 138.186L1318.54 138.192L1318.94 145.85L1319.06 145.843C1335.98 144.957 1350.41 157.953 1351.3 174.871C1352.18 191.79 1339.19 206.223 1322.27 207.11L1322.15 207.116L1322.55 214.779L1322.67 214.773C1339.58 213.886 1354.02 226.882 1354.91 243.801C1355.79 260.719 1342.8 275.153 1325.88 276.04L1325.76 276.046L1326.16 283.703L1326.28 283.697C1343.2 282.81 1357.63 295.807 1358.52 312.725C1359.41 329.643 1346.41 344.077 1329.49 344.964L1329.37 344.97L1329.77 352.633L1329.89 352.627C1346.81 351.74 1361.24 364.736 1362.13 381.655C1363.02 398.573 1350.02 413.007 1333.1 413.894L1332.98 413.9L1333.39 421.552L1333.51 421.545C1350.42 420.659 1364.86 433.655 1365.74 450.573C1366.63 467.492 1353.63 481.926 1336.72 482.812L1336.6 482.818L1337 490.484L1337.12 490.477C1354.04 489.59 1368.47 502.587 1369.36 519.505C1370.24 536.423 1357.25 550.857 1340.33 551.744L1340.21 551.75L1340.61 559.404L1340.73 559.397C1357.65 558.511 1372.08 571.507 1372.97 588.426C1373.85 605.344 1360.86 619.778 1343.94 620.664L1343.82 620.67L1344.22 628.33C1344.26 628.328 1344.3 628.326 1344.34 628.324C1361.26 627.437 1375.7 640.433 1376.58 657.352C1377.47 674.27 1364.47 688.704 1347.55 689.591C1347.51 689.593 1347.47 689.595 1347.43 689.597L1347.8 696.612L2113.62 656.476C2172.84 653.373 2218.33 602.855 2215.22 543.64L2208.97 424.396C2205.84 424.861 2202.66 425.181 2199.44 425.35C2144.45 428.232 2097.54 385.994 2094.66 331.009C2091.78 276.024 2134.02 229.114 2189 226.232C2192.23 226.064 2195.42 226.05 2198.59 226.184L2193.55 130.089Z" fill="#00FF82"/>
<circle cx="1322.56" cy="244.017" r="23.0066" fill="#00FF82"/>
<circle cx="1330.23" cy="382.055" r="23.0066" fill="#00FF82"/>
<circle cx="1291.89" cy="589.116" r="23.0066" fill="white"/>
<ellipse cx="1325.23" cy="309.608" rx="23.0066" ry="11.5033" transform="rotate(-23.0122 1325.23 309.608)" fill="#00FF82"/>
<ellipse cx="1317.56" cy="524.34" rx="23.0066" ry="11.5033" transform="rotate(-23.0122 1317.56 524.34)" fill="#05211C"/>
<ellipse cx="1286.88" cy="754.409" rx="23.0066" ry="11.5033" transform="rotate(21.9427 1286.88 754.409)" fill="#00FF82"/>
<ellipse cx="1363.38" cy="741.949" rx="23.0066" ry="11.5033" transform="rotate(-34.2695 1363.38 741.949)" fill="white"/>
<path d="M180.64 442.189L182.803 265.052L232.655 265.66L280.159 396.33L329.322 266.841L378.161 267.437L375.998 444.575L339.811 444.133L341.261 325.451L293.755 443.571L262.883 443.194L218.276 323.949L216.827 442.631L180.64 442.189ZM527.844 416.312L531.893 416.361L531.525 446.475L513.305 446.252C494.832 446.026 489.12 437.098 489.525 424.702C480.239 439.015 466.978 447.205 446.734 446.958C418.645 446.615 398.564 432.955 398.867 408.156C399.204 380.573 420.146 365.137 459.116 365.613L484.928 365.929L485.005 359.602C485.147 347.962 476.889 340.268 461.959 340.086C448.041 339.916 438.601 346.128 436.965 355.725L402.549 355.305C405.389 330.03 428.874 313.613 463.289 314.034C499.729 314.479 520.535 330.931 520.155 362.056L519.592 408.112C519.509 414.944 522.277 416.244 527.844 416.312ZM484.606 392.246L484.637 389.716L458.573 389.397C443.642 389.215 434.964 395.183 434.831 406.064C434.72 415.174 441.988 421.084 453.881 421.23C472.607 421.458 484.137 409.957 484.606 392.246ZM545.328 446.643L547.492 269.505L583.172 269.941L581.924 372.175L633.461 317.63L673.697 318.122L626.258 368.667L674.639 448.222L633.391 447.719L601.137 394.682L581.395 415.447L581.009 447.079L545.328 446.643ZM741.055 450.552C697.783 450.024 672.037 423.641 672.528 383.405C673.023 342.916 699.915 316.923 740.15 317.415C779.12 317.891 805.141 342.505 805.181 380.723C805.135 384.518 804.829 388.817 804.02 392.857L709.631 391.704L709.61 393.475C710.143 411.958 721.901 423.237 739.867 423.457C754.292 423.633 764.491 417.43 767.676 405.321L802.85 405.75C798.493 431.006 775.724 450.975 741.055 450.552ZM710.675 368.432L769.383 369.149C767.047 353.176 756.274 344.186 740.079 343.989C724.642 343.8 712.888 353.021 710.675 368.432ZM826.62 450.078L828.783 272.941L878.635 273.55L926.139 404.219L975.301 274.73L1024.14 275.327L1021.98 452.464L985.791 452.022L987.24 333.34L939.735 451.46L908.862 451.083L864.256 331.838L862.806 450.52L826.62 450.078ZM1086.9 454.017L1038.4 322.576L1076.35 323.039L1106.85 416.043L1138.86 323.803L1177.07 324.269L1117.56 472.107C1109.2 493.518 1102.49 504.066 1082.24 503.819L1047.58 503.395L1047.94 473.282L1067.68 473.523C1076.79 473.634 1079.86 471.394 1083.51 462.58L1086.9 454.017Z" fill="#051F1B"/>
<path d="M1489.46 469.24L1480.78 292.301L1552.82 288.77C1591.24 286.886 1617.9 308.637 1619.66 344.53C1621.41 380.17 1597 404.424 1558.58 406.308L1524.46 407.98L1527.37 467.381L1489.46 469.24ZM1550.83 320.539L1520.25 322.039L1522.91 376.384L1553.5 374.885C1571.19 374.017 1582.06 363.096 1581.24 346.413C1580.41 329.478 1568.53 319.672 1550.83 320.539ZM1758.65 425.891L1762.69 425.693L1764.17 455.772L1745.97 456.665C1727.51 457.569 1721.27 449.007 1720.91 436.609C1712.52 451.463 1699.78 460.449 1679.56 461.44C1651.5 462.816 1630.63 450.41 1629.41 425.639C1628.06 398.087 1648.02 381.399 1686.95 379.491L1712.73 378.227L1712.42 371.908C1711.85 360.28 1703.14 353.106 1688.22 353.837C1674.32 354.519 1665.28 361.297 1664.23 370.976L1629.86 372.662C1631.14 347.261 1653.58 329.438 1687.96 327.753C1724.36 325.968 1746.13 341.117 1747.65 372.208L1749.91 418.212C1750.24 425.036 1753.09 426.164 1758.65 425.891ZM1714.02 404.515L1713.89 401.987L1687.86 403.264C1672.95 403.995 1664.65 410.483 1665.18 421.352C1665.63 430.451 1673.24 435.906 1685.12 435.323C1703.83 434.406 1714.63 422.221 1714.02 404.515ZM1769.77 412.17L1803.64 410.51C1805.46 421.823 1815.7 429.175 1833.14 428.32C1848.06 427.589 1856.92 422.34 1856.47 413.241C1855.95 402.624 1847.07 402.3 1825.95 400.548C1795.45 398.496 1771.61 392.824 1770.29 366.03C1769.03 340.248 1790.7 322.209 1824.07 320.826C1858.96 319.116 1883.72 333.358 1886.79 359.812L1852.67 361.485C1851.15 351.171 1840.98 345.335 1826.58 346.041C1812.67 346.723 1803.82 352.224 1804.23 360.566C1804.71 370.424 1815.89 370.889 1834.7 372.247C1864.68 373.818 1889.78 379.429 1891.22 408.75C1892.48 434.532 1869.02 452.152 1834.14 453.862C1798 455.634 1772.65 439.901 1769.77 412.17ZM1901.34 405.72L1935.21 404.06C1937.03 415.372 1947.27 422.725 1964.71 421.87C1979.63 421.139 1988.49 415.89 1988.04 406.79C1987.52 396.174 1978.64 395.85 1957.52 394.098C1927.02 392.046 1903.17 386.374 1901.86 359.58C1900.6 333.798 1922.26 315.759 1955.64 314.376C1990.52 312.666 2015.29 326.908 2018.36 353.362L1984.24 355.035C1982.72 344.721 1972.55 338.885 1958.14 339.591C1944.24 340.273 1935.39 345.774 1935.8 354.116C1936.28 363.974 1947.45 364.439 1966.27 365.797C1996.25 367.368 2021.35 372.979 2022.79 402.3C2024.05 428.082 2000.59 445.702 1965.71 447.412C1929.56 449.184 1904.22 433.451 1901.34 405.72Z" fill="#051F1B"/>
</svg>
