<svg width="3224" height="1778" viewBox="0 0 3224 1778" fill="none" xmlns="http://www.w3.org/2000/svg">
<g filter="url(#filter0_d_1_3500)">
<path fill-rule="evenodd" clip-rule="evenodd" d="M446.292 527C449.395 467.785 499.914 422.298 559.128 425.402L1734.13 486.981L1733.69 495.29L1733.57 495.284C1716.66 494.397 1702.22 507.393 1701.33 524.312C1700.45 541.23 1713.44 555.664 1730.36 556.55L1730.48 556.556L1730.08 564.212L1729.96 564.206C1713.05 563.319 1698.61 576.316 1697.73 593.234C1696.84 610.152 1709.84 624.586 1726.75 625.473L1726.87 625.479L1726.47 633.136L1726.35 633.13C1709.43 632.243 1695 645.24 1694.11 662.158C1693.23 679.077 1706.22 693.51 1723.14 694.397L1723.26 694.403L1722.86 702.062L1722.74 702.056C1705.82 701.169 1691.39 714.166 1690.5 731.084C1689.62 748.003 1702.61 762.436 1719.53 763.323L1719.64 763.329L1719.24 770.99L1719.13 770.984C1702.21 770.097 1687.77 783.094 1686.89 800.012C1686 816.93 1699 831.364 1715.92 832.251L1716.03 832.257L1715.63 839.915L1715.51 839.908C1698.59 839.022 1684.16 852.018 1683.27 868.936C1682.39 885.855 1695.38 900.288 1712.3 901.175L1712.42 901.181L1712.02 908.835L1711.9 908.829C1694.99 907.942 1680.55 920.938 1679.66 937.857C1678.78 954.775 1691.77 969.209 1708.69 970.096L1708.81 970.102L1708.41 977.763L1708.29 977.757C1691.38 976.87 1676.94 989.866 1676.06 1006.78C1675.17 1023.7 1688.17 1038.14 1705.08 1039.02L1705.2 1039.03L1704.79 1046.69C1704.76 1046.69 1704.72 1046.69 1704.68 1046.69C1687.76 1045.8 1673.33 1058.8 1672.44 1075.71C1671.55 1092.63 1684.55 1107.07 1701.47 1107.95C1701.51 1107.96 1701.54 1107.96 1701.58 1107.96L1701.22 1114.97L526.217 1053.39C467.002 1050.28 421.516 999.766 424.619 940.551L430.041 837.094C478.16 832.247 516.873 792.908 519.483 743.117C522.092 693.326 487.703 650.156 440.354 640.305L446.292 527Z" fill="#00FF82"/>
<path fill-rule="evenodd" clip-rule="evenodd" d="M2612.55 549.871C2609.45 490.657 2558.93 445.17 2499.71 448.273L1733.89 488.408L1734.32 496.708L1734.44 496.702C1751.36 495.815 1765.8 508.811 1766.68 525.73C1767.57 542.648 1754.57 557.082 1737.66 557.969L1737.54 557.975L1737.94 565.632L1738.06 565.626C1754.98 564.739 1769.41 577.736 1770.3 594.654C1771.18 611.572 1758.19 626.006 1741.27 626.893L1741.15 626.899L1741.55 634.562L1741.67 634.556C1758.58 633.669 1773.02 646.665 1773.91 663.584C1774.79 680.502 1761.8 694.936 1744.88 695.822L1744.76 695.828L1745.16 703.486L1745.28 703.48C1762.2 702.593 1776.63 715.589 1777.52 732.508C1778.41 749.426 1765.41 763.86 1748.49 764.747L1748.37 764.753L1748.77 772.416L1748.89 772.409C1765.81 771.523 1780.24 784.519 1781.13 801.437C1782.02 818.356 1769.02 832.79 1752.1 833.676L1751.98 833.682L1752.39 841.335L1752.51 841.328C1769.42 840.442 1783.86 853.438 1784.74 870.356C1785.63 887.275 1772.63 901.708 1755.72 902.595L1755.6 902.601L1756 910.266L1756.12 910.26C1773.04 909.373 1787.47 922.369 1788.36 939.288C1789.24 956.206 1776.25 970.64 1759.33 971.527L1759.21 971.533L1759.61 979.187L1759.73 979.18C1776.65 978.294 1791.08 991.29 1791.97 1008.21C1792.85 1025.13 1779.86 1039.56 1762.94 1040.45L1762.82 1040.45L1763.22 1048.11C1763.26 1048.11 1763.3 1048.11 1763.34 1048.11C1780.26 1047.22 1794.7 1060.22 1795.58 1077.13C1796.47 1094.05 1783.47 1108.49 1766.55 1109.37C1766.51 1109.38 1766.47 1109.38 1766.43 1109.38L1766.8 1116.39L2532.62 1076.26C2591.84 1073.16 2637.33 1022.64 2634.22 963.423L2627.97 844.179C2624.84 844.643 2621.66 844.964 2618.44 845.133C2563.45 848.014 2516.54 805.776 2513.66 750.792C2510.78 695.807 2553.02 648.897 2608 646.015C2611.23 645.846 2614.42 645.832 2617.59 645.967L2612.55 549.871Z" fill="#00FF82"/>
<circle cx="1741.56" cy="663.8" r="23.0066" fill="#00FF82"/>
<circle cx="1749.23" cy="801.838" r="23.0066" fill="#00FF82"/>
<circle cx="1710.89" cy="1008.9" r="23.0066" fill="white"/>
<ellipse cx="1744.23" cy="729.391" rx="23.0066" ry="11.5033" transform="rotate(-23.0122 1744.23 729.391)" fill="#00FF82"/>
<ellipse cx="1736.56" cy="944.122" rx="23.0066" ry="11.5033" transform="rotate(-23.0122 1736.56 944.122)" fill="#05211C"/>
<ellipse cx="1705.88" cy="1174.19" rx="23.0066" ry="11.5033" transform="rotate(21.9427 1705.88 1174.19)" fill="#00FF82"/>
<ellipse cx="1782.38" cy="1161.73" rx="23.0066" ry="11.5033" transform="rotate(-34.2695 1782.38 1161.73)" fill="white"/>
<path d="M599.64 861.972L601.803 684.834L651.655 685.443L699.159 816.112L748.322 686.624L797.161 687.22L794.998 864.358L758.811 863.916L760.261 745.234L712.755 863.353L681.883 862.976L637.276 743.732L635.827 862.414L599.64 861.972ZM946.844 836.094L950.893 836.144L950.525 866.257L932.305 866.035C913.832 865.809 908.12 856.881 908.525 844.485C899.239 858.797 885.978 866.988 865.734 866.74C837.645 866.397 817.564 852.738 817.867 827.939C818.204 800.356 839.146 784.92 878.116 785.396L903.928 785.711L904.005 779.385C904.147 767.744 895.889 760.051 880.959 759.868C867.041 759.698 857.601 765.91 855.965 775.508L821.549 775.088C824.389 749.813 847.874 733.396 882.289 733.816C918.729 734.261 939.535 750.713 939.155 781.839L938.592 827.895C938.509 834.727 941.277 836.026 946.844 836.094ZM903.606 812.029L903.637 809.498L877.573 809.18C862.642 808.998 853.964 814.966 853.831 825.847C853.72 834.957 860.988 840.867 872.881 841.012C891.607 841.241 903.137 829.74 903.606 812.029ZM964.328 866.426L966.492 689.288L1002.17 689.724L1000.92 791.958L1052.46 737.413L1092.7 737.904L1045.26 788.45L1093.64 868.005L1052.39 867.501L1020.14 814.464L1000.4 835.23L1000.01 866.862L964.328 866.426ZM1160.06 870.335C1116.78 869.806 1091.04 843.423 1091.53 803.188C1092.02 762.699 1118.91 736.706 1159.15 737.197C1198.12 737.673 1224.14 762.288 1224.18 800.505C1224.13 804.301 1223.83 808.6 1223.02 812.64L1128.63 811.487L1128.61 813.258C1129.14 831.74 1140.9 843.02 1158.87 843.239C1173.29 843.416 1183.49 837.213 1186.68 825.103L1221.85 825.533C1217.49 850.789 1194.72 870.758 1160.06 870.335ZM1129.67 788.215L1188.38 788.932C1186.05 772.959 1175.27 763.969 1159.08 763.771C1143.64 763.583 1131.89 772.804 1129.67 788.215ZM1245.62 869.861L1247.78 692.723L1297.63 693.332L1345.14 824.002L1394.3 694.513L1443.14 695.109L1440.98 872.247L1404.79 871.805L1406.24 753.123L1358.73 871.243L1327.86 870.866L1283.26 751.621L1281.81 870.303L1245.62 869.861ZM1505.9 873.799L1457.4 742.358L1495.35 742.822L1525.85 835.826L1557.86 743.585L1596.07 744.052L1536.56 891.89C1528.2 913.301 1521.49 923.849 1501.24 923.601L1466.58 923.178L1466.94 893.065L1486.68 893.306C1495.79 893.417 1498.86 891.177 1502.51 882.363L1505.9 873.799Z" fill="#051F1B"/>
<path d="M1908.46 889.023L1899.78 712.084L1971.82 708.552C2010.24 706.669 2036.9 728.419 2038.66 764.313C2040.41 799.953 2016 824.207 1977.58 826.09L1943.46 827.763L1946.37 887.164L1908.46 889.023ZM1969.83 740.322L1939.25 741.822L1941.91 796.167L1972.5 794.668C1990.19 793.8 2001.06 782.879 2000.24 766.196C1999.41 749.261 1987.53 739.455 1969.83 740.322ZM2177.65 845.674L2181.69 845.476L2183.17 875.555L2164.97 876.447C2146.51 877.352 2140.27 868.79 2139.91 856.392C2131.52 871.246 2118.78 880.232 2098.56 881.223C2070.5 882.599 2049.63 870.193 2048.41 845.422C2047.06 817.87 2067.02 801.182 2105.95 799.274L2131.73 798.01L2131.42 791.691C2130.85 780.063 2122.14 772.889 2107.22 773.62C2093.32 774.302 2084.28 781.079 2083.23 790.759L2048.86 792.444C2050.14 767.043 2072.58 749.221 2106.96 747.535C2143.36 745.751 2165.13 760.9 2166.65 791.99L2168.91 837.994C2169.24 844.819 2172.09 845.947 2177.65 845.674ZM2133.02 824.298L2132.89 821.77L2106.86 823.046C2091.95 823.778 2083.65 830.265 2084.18 841.134C2084.63 850.234 2092.24 855.688 2104.12 855.106C2122.83 854.189 2133.63 842.004 2133.02 824.298ZM2188.77 831.953L2222.64 830.293C2224.46 841.605 2234.7 848.958 2252.14 848.103C2267.06 847.372 2275.92 842.123 2275.47 833.023C2274.95 822.407 2266.07 822.082 2244.95 820.33C2214.45 818.279 2190.61 812.606 2189.29 785.813C2188.03 760.03 2209.7 741.992 2243.07 740.609C2277.96 738.899 2302.72 753.141 2305.79 779.595L2271.67 781.267C2270.15 770.954 2259.98 765.118 2245.58 765.824C2231.67 766.505 2222.82 772.007 2223.23 780.348C2223.71 790.206 2234.89 790.672 2253.7 792.03C2283.68 793.601 2308.78 799.211 2310.22 828.533C2311.48 854.315 2288.02 871.935 2253.14 873.645C2217 875.417 2191.65 859.683 2188.77 831.953ZM2320.34 825.503L2354.21 823.843C2356.03 835.155 2366.27 842.508 2383.71 841.653C2398.63 840.922 2407.49 835.673 2407.04 826.573C2406.52 815.957 2397.64 815.632 2376.52 813.88C2346.02 811.829 2322.17 806.156 2320.86 779.363C2319.6 753.58 2341.26 735.542 2374.64 734.159C2409.52 732.449 2434.29 746.69 2437.36 773.144L2403.24 774.817C2401.72 764.503 2391.55 758.667 2377.14 759.374C2363.24 760.055 2354.39 765.557 2354.8 773.898C2355.28 783.756 2366.45 784.222 2385.27 785.58C2415.25 787.151 2440.35 792.761 2441.79 822.083C2443.05 847.865 2419.59 865.485 2384.71 867.195C2348.56 868.967 2323.22 853.233 2320.34 825.503Z" fill="#051F1B"/>
</g>
<defs>
<filter id="filter0_d_1_3500" x="0.070755" y="0.853958" width="3223.52" height="1776.25" filterUnits="userSpaceOnUse" color-interpolation-filters="sRGB">
<feFlood flood-opacity="0" result="BackgroundImageFix"/>
<feColorMatrix in="SourceAlpha" type="matrix" values="0 0 0 0 0 0 0 0 0 0 0 0 0 0 0 0 0 0 127 0" result="hardAlpha"/>
<feOffset dx="82.4074" dy="82.4074"/>
<feGaussianBlur stdDeviation="253.403"/>
<feComposite in2="hardAlpha" operator="out"/>
<feColorMatrix type="matrix" values="0 0 0 0 0 0 0 0 0 0 0 0 0 0 0 0 0 0 0.25 0"/>
<feBlend mode="normal" in2="BackgroundImageFix" result="effect1_dropShadow_1_3500"/>
<feBlend mode="normal" in="SourceGraphic" in2="effect1_dropShadow_1_3500" result="shape"/>
</filter>
</defs>
</svg>
