<svg width="2221" height="774" viewBox="0 0 2221 774" fill="none" xmlns="http://www.w3.org/2000/svg">
<path fill-rule="evenodd" clip-rule="evenodd" d="M25.2921 107.217C28.3954 48.0029 78.9139 2.51572 138.128 5.61901L1313.13 67.1981L1312.69 75.5035L1312.57 75.4971C1295.66 74.6104 1281.22 87.6067 1280.33 104.525C1279.45 121.444 1292.44 135.877 1309.36 136.764L1309.48 136.77L1309.08 144.427L1308.96 144.42C1292.05 143.534 1277.61 156.53 1276.72 173.448C1275.84 190.367 1288.83 204.801 1305.75 205.687L1305.87 205.693L1305.47 213.35L1305.35 213.344C1288.43 212.457 1274 225.453 1273.11 242.372C1272.23 259.29 1285.22 273.724 1302.14 274.611L1302.26 274.617L1301.86 282.276L1301.74 282.27C1284.82 281.383 1270.39 294.38 1269.5 311.298C1268.61 328.216 1281.61 342.65 1298.53 343.537L1298.65 343.543L1298.24 351.205L1298.13 351.199C1281.21 350.312 1266.77 363.308 1265.89 380.227C1265 397.145 1278 411.579 1294.92 412.466L1295.03 412.471L1294.63 420.127L1294.51 420.121C1277.6 419.234 1263.16 432.23 1262.27 449.149C1261.39 466.067 1274.38 480.501 1291.3 481.388L1291.42 481.394L1291.02 489.05L1290.9 489.044C1273.99 488.157 1259.55 501.154 1258.66 518.072C1257.78 534.99 1270.77 549.424 1287.69 550.311L1287.81 550.317L1287.41 557.976L1287.29 557.97C1270.37 557.083 1255.94 570.08 1255.05 586.998C1254.17 603.916 1267.16 618.35 1284.08 619.237L1284.2 619.243L1283.8 626.907C1283.76 626.904 1283.72 626.902 1283.68 626.9C1266.76 626.013 1252.32 639.01 1251.44 655.928C1250.55 672.847 1263.55 687.28 1280.47 688.167C1280.5 688.169 1280.54 688.171 1280.58 688.173L1280.22 695.184L105.217 633.605C46.0025 630.502 0.515487 579.983 3.61878 520.769L9.04088 417.309C57.1597 412.461 95.8722 373.123 98.4816 323.332C101.091 273.541 66.7026 230.372 19.3541 220.521L25.2921 107.217Z" fill="#051F1B"/>
<path fill-rule="evenodd" clip-rule="evenodd" d="M2191.55 130.082C2188.45 70.8671 2137.93 25.38 2078.71 28.4833L1312.89 68.6184L1313.32 76.9222L1313.45 76.9155C1330.37 76.0288 1344.8 89.0251 1345.69 105.944C1346.57 122.862 1333.58 137.296 1316.66 138.182L1316.54 138.189L1316.94 145.845L1317.06 145.839C1333.98 144.952 1348.41 157.948 1349.3 174.867C1350.18 191.785 1337.19 206.219 1320.27 207.106L1320.15 207.112L1320.55 214.777L1320.67 214.77C1337.59 213.883 1352.02 226.88 1352.91 243.798C1353.8 260.717 1340.8 275.15 1323.88 276.037L1323.76 276.043L1324.16 283.7L1324.28 283.693C1341.2 282.807 1355.64 295.803 1356.52 312.722C1357.41 329.64 1344.41 344.074 1327.49 344.96L1327.37 344.967L1327.77 352.629L1327.9 352.622C1344.81 351.736 1359.25 364.732 1360.13 381.65C1361.02 398.569 1348.02 413.002 1331.11 413.889L1330.98 413.895L1331.39 421.55L1331.51 421.543C1348.43 420.656 1362.86 433.653 1363.75 450.571C1364.63 467.489 1351.64 481.923 1334.72 482.81L1334.6 482.816L1335 490.478L1335.12 490.472C1352.04 489.585 1366.47 502.581 1367.36 519.5C1368.25 536.418 1355.25 550.852 1338.33 551.739L1338.21 551.745L1338.61 559.402L1338.73 559.395C1355.65 558.508 1370.09 571.505 1370.97 588.423C1371.86 605.341 1358.86 619.775 1341.94 620.662L1341.82 620.668L1342.22 628.328C1342.26 628.325 1342.3 628.323 1342.35 628.321C1359.26 627.434 1373.7 640.431 1374.58 657.349C1375.47 674.267 1362.47 688.701 1345.56 689.588C1345.52 689.59 1345.47 689.592 1345.43 689.594L1345.8 696.605L2111.63 656.469C2170.84 653.366 2216.33 602.848 2213.22 543.633L2206.97 424.391C2203.84 424.856 2200.66 425.176 2197.44 425.345C2142.45 428.227 2095.54 385.989 2092.66 331.004C2089.78 276.019 2132.02 229.109 2187 226.227C2190.23 226.058 2193.43 226.045 2196.59 226.179L2191.55 130.082Z" fill="#051F1B"/>
<circle cx="1320.56" cy="244.015" r="23.0066" fill="#051F1B"/>
<circle cx="1328.23" cy="382.053" r="23.0066" fill="#051F1B"/>
<circle cx="1289.88" cy="589.114" r="23.0066" fill="white"/>
<ellipse cx="1323.23" cy="309.606" rx="23.0066" ry="11.5033" transform="rotate(-23.0122 1323.23 309.606)" fill="#051F1B"/>
<ellipse cx="1315.56" cy="524.337" rx="23.0066" ry="11.5033" transform="rotate(-23.0122 1315.56 524.337)" fill="#05211C"/>
<ellipse cx="1284.88" cy="754.406" rx="23.0066" ry="11.5033" transform="rotate(21.9427 1284.88 754.406)" fill="#051F1B"/>
<ellipse cx="1361.39" cy="741.946" rx="23.0066" ry="11.5033" transform="rotate(-34.2695 1361.39 741.946)" fill="white"/>
<g filter="url(#filter0_d_2390_216)">
<path d="M178.641 442.187L180.804 265.049L230.656 265.658L278.16 396.328L327.323 266.839L376.162 267.435L373.999 444.573L337.812 444.131L339.262 325.449L291.756 443.569L260.884 443.192L216.277 323.947L214.828 442.629L178.641 442.187ZM525.845 416.31L529.894 416.359L529.526 446.473L511.306 446.25C492.833 446.025 487.121 437.097 487.526 424.7C478.24 439.013 464.979 447.203 444.735 446.956C416.646 446.613 396.565 432.953 396.868 408.154C397.205 380.571 418.147 365.135 457.117 365.611L482.929 365.927L483.006 359.6C483.148 347.96 474.89 340.266 459.96 340.084C446.042 339.914 436.602 346.126 434.966 355.723L400.551 355.303C403.39 330.028 426.875 313.611 461.29 314.032C497.73 314.477 518.536 330.929 518.156 362.054L517.593 408.11C517.51 414.942 520.278 416.242 525.845 416.31ZM482.607 392.244L482.638 389.714L456.574 389.395C441.643 389.213 432.965 395.181 432.833 406.062C432.721 415.172 439.989 421.082 451.882 421.228C470.608 421.456 482.138 409.955 482.607 392.244ZM543.33 446.641L545.493 269.503L581.174 269.939L579.925 372.173L631.463 317.628L671.698 318.12L624.259 368.665L672.64 448.22L631.392 447.717L599.138 394.68L579.397 415.445L579.01 447.077L543.33 446.641ZM739.056 450.55C695.784 450.022 670.038 423.639 670.529 383.403C671.024 342.914 697.916 316.921 738.151 317.413C777.122 317.889 803.143 342.503 803.182 380.721C803.136 384.516 802.83 388.815 802.022 392.855L707.632 391.702L707.611 393.474C708.144 411.956 719.902 423.235 737.869 423.455C752.293 423.631 762.492 417.428 765.677 405.319L800.852 405.748C796.494 431.004 773.725 450.974 739.056 450.55ZM708.676 368.43L767.384 369.147C765.049 353.174 754.275 344.184 738.08 343.987C722.644 343.798 710.889 353.019 708.676 368.43ZM824.621 450.077L826.784 272.939L876.636 273.547L924.14 404.217L973.303 274.728L1022.14 275.325L1019.98 452.462L983.792 452.02L985.242 333.338L937.736 451.458L906.864 451.081L862.257 331.836L860.808 450.518L824.621 450.077ZM1084.9 454.015L1036.4 322.574L1074.35 323.037L1104.86 416.041L1136.86 323.801L1175.07 324.267L1115.56 472.105C1107.2 493.516 1100.49 504.064 1080.25 503.817L1045.58 503.393L1045.95 473.28L1065.68 473.521C1074.79 473.632 1077.86 471.392 1081.51 462.578L1084.9 454.015Z" fill="white"/>
</g>
<g filter="url(#filter1_d_2390_216)">
<path d="M1487.46 469.239L1478.78 292.3L1550.82 288.769C1589.24 286.885 1615.9 308.636 1617.66 344.529C1619.41 380.169 1595.01 404.423 1556.58 406.307L1522.46 407.979L1525.37 467.38L1487.46 469.239ZM1548.83 320.538L1518.25 322.038L1520.91 376.383L1551.5 374.884C1569.19 374.016 1580.06 363.095 1579.24 346.412C1578.41 329.477 1566.53 319.671 1548.83 320.538ZM1756.65 425.89L1760.69 425.692L1762.17 455.772L1743.97 456.664C1725.51 457.568 1719.27 449.006 1718.91 436.608C1710.52 451.462 1697.78 460.448 1677.56 461.439C1649.51 462.815 1628.63 450.409 1627.41 425.638C1626.06 398.086 1646.02 381.398 1684.95 379.49L1710.73 378.226L1710.42 371.907C1709.85 360.279 1701.14 353.105 1686.22 353.836C1672.32 354.518 1663.28 361.296 1662.23 370.975L1627.86 372.661C1629.14 347.26 1651.58 329.437 1685.96 327.752C1722.36 325.967 1744.13 341.116 1745.65 372.206L1747.91 418.211C1748.24 425.035 1751.09 426.163 1756.65 425.89ZM1712.02 404.514L1711.89 401.986L1685.86 403.263C1670.95 403.994 1662.65 410.482 1663.18 421.351C1663.63 430.45 1671.24 435.905 1683.12 435.322C1701.83 434.405 1712.63 422.22 1712.02 404.514ZM1767.77 412.169L1801.64 410.509C1803.46 421.822 1813.7 429.174 1831.14 428.319C1846.06 427.588 1854.92 422.339 1854.48 413.24C1853.96 402.623 1845.07 402.299 1823.96 400.547C1793.45 398.495 1769.61 392.823 1768.29 366.029C1767.03 340.247 1788.7 322.208 1822.07 320.825C1856.96 319.115 1881.73 333.357 1884.8 359.811L1850.67 361.484C1849.15 351.17 1838.98 345.334 1824.58 346.04C1810.67 346.722 1801.82 352.223 1802.23 360.565C1802.72 370.423 1813.89 370.888 1832.7 372.246C1862.68 373.817 1887.78 379.428 1889.22 408.749C1890.49 434.531 1867.03 452.151 1832.14 453.861C1796 455.633 1770.65 439.9 1767.77 412.169ZM1899.34 405.719L1933.21 404.059C1935.03 415.371 1945.27 422.724 1962.71 421.869C1977.63 421.138 1986.49 415.889 1986.04 406.789C1985.52 396.173 1976.64 395.849 1955.52 394.097C1925.02 392.045 1901.18 386.373 1899.86 359.579C1898.6 333.796 1920.26 315.758 1953.64 314.375C1988.52 312.665 2013.29 326.907 2016.36 353.361L1982.24 355.034C1980.72 344.72 1970.55 338.884 1956.15 339.59C1942.24 340.272 1933.39 345.773 1933.8 354.114C1934.28 363.973 1945.46 364.438 1964.27 365.796C1994.25 367.367 2019.35 372.978 2020.79 402.299C2022.05 428.081 1998.59 445.701 1963.71 447.411C1927.57 449.183 1902.22 433.45 1899.34 405.719Z" fill="white"/>
</g>
<defs>
<filter id="filter0_d_2390_216" x="147.348" y="265.049" width="1058.97" height="301.25" filterUnits="userSpaceOnUse" color-interpolation-filters="sRGB">
<feFlood flood-opacity="0" result="BackgroundImageFix"/>
<feColorMatrix in="SourceAlpha" type="matrix" values="0 0 0 0 0 0 0 0 0 0 0 0 0 0 0 0 0 0 127 0" result="hardAlpha"/>
<feOffset dy="30.6755"/>
<feGaussianBlur stdDeviation="15.3378"/>
<feComposite in2="hardAlpha" operator="out"/>
<feColorMatrix type="matrix" values="0 0 0 0 0 0 0 0 0 0 0 0 0 0 0 0 0 0 0.25 0"/>
<feBlend mode="normal" in2="BackgroundImageFix" result="effect1_dropShadow_2390_216"/>
<feBlend mode="normal" in="SourceGraphic" in2="effect1_dropShadow_2390_216" result="shape"/>
</filter>
<filter id="filter1_d_2390_216" x="1424.33" y="242.283" width="652.975" height="313.598" filterUnits="userSpaceOnUse" color-interpolation-filters="sRGB">
<feFlood flood-opacity="0" result="BackgroundImageFix"/>
<feColorMatrix in="SourceAlpha" type="matrix" values="0 0 0 0 0 0 0 0 0 0 0 0 0 0 0 0 0 0 127 0" result="hardAlpha"/>
<feOffset dy="30.6755"/>
<feGaussianBlur stdDeviation="27.2245"/>
<feComposite in2="hardAlpha" operator="out"/>
<feColorMatrix type="matrix" values="0 0 0 0 0 0 0 0 0 0 0 0 0 0 0 0 0 0 0.25 0"/>
<feBlend mode="normal" in2="BackgroundImageFix" result="effect1_dropShadow_2390_216"/>
<feBlend mode="normal" in="SourceGraphic" in2="effect1_dropShadow_2390_216" result="shape"/>
</filter>
</defs>
</svg>
